:SAMPLES-PER-SECOND 24
:FULLY-SPECIFIED
:DEGREES
537
root  -1.8513 40.0849 -36.1876 -12.5323 -1.31178 10.7312
RightUpLeg  3.4329 2.89408 -12.6493
RightLeg  22.8655 -4.1465 -2.14144
RightFoot  -9.35258 -0.0543295 -0.511174
RightToes  -1.46215e-006 3.27826e-006 1.63871e-007
Spine  15.6085 10.1062 22.1456
Spine1  16.016 22.183 -25.954
HEad  -16.8842 40.2015 -19.1935
LeftShoulder1  2.96534 -4.90589 -29.2234
LeftArm  12.0652 36.8737 -30.6509
LeftForeArm  85.3391 -71.6641 -139.197
LeftHand  -0.091393 3.49735 4.6133
RightShoulder  1.54177 3.60575 14.8487
RightArm  76.2168 49.2515 102.422
RightForeArm  56.0079 72.3527 29.2387
RightHand  0.0365281 -2.816 2.41433
LeftUpLeg  -66.3549 -4.35068 -14.558
LeftLeg  122.549 6.27295 -9.52349
LeftFoot  15.1728 1.3394 -6.07891
LeftToes  1.24762e-006 1.46925e-008 1.29056e-009
538
root  -2.51639 40.1918 -36.0108 -12.7426 0.10704 10.2972
RightUpLeg  5.19784 0.968581 -11.7469
RightLeg  21.4988 -3.55057 -1.77839
RightFoot  -9.19007 -0.0473137 -0.793806
RightToes  -1.46215e-006 3.27826e-006 1.63871e-007
Spine  15.0906 10.0038 19.3643
Spine1  15.6348 20.7159 -23.3651
HEad  -17.0327 40.8578 -19.3998
LeftShoulder1  2.81495 -4.65679 -28.4412
LeftArm  12.2286 34.8466 -30.7974
LeftForeArm  102.763 -69.5212 -145.551
LeftHand  -0.0336802 5.12701 4.39542
RightShoulder  2.30132 4.87629 21.1363
RightArm  59.6811 46.3471 88.0869
RightForeArm  67.9973 76.3579 40.2379
RightHand  0.0699637 -2.04041 2.85979
LeftUpLeg  -66.4998 -3.84842 -14.4235
LeftLeg  120.407 6.19892 -10.1745
LeftFoot  11.6712 1.06047 -5.54541
LeftToes  1.24762e-006 1.46925e-008 1.29056e-009
539
root  -3.10464 40.221 -35.8937 -11.4757 1.67316 10.0363
RightUpLeg  4.81065 -0.894014 -11.0141
RightLeg  20.9934 -3.561 -1.74418
RightFoot  -9.33025 -0.0441359 -1.08555
RightToes  -1.46215e-006 3.27826e-006 1.63871e-007
Spine  12.1252 9.03221 14.6911
Spine1  15.2826 17.262 -18.9831
HEad  -17.7144 44.4178 -21.773
LeftShoulder1  2.69862 -4.54515 -27.4469
LeftArm  7.63694 28.6182 -32.8676
LeftForeArm  115.328 -68.2488 -149.02
LeftHand  0.0295239 6.41528 6.49773
RightShoulder  2.98902 5.62928 26.7244
RightArm  41.4974 41.1061 70.916
RightForeArm  102.125 80.8153 76.4597
RightHand  0.0442679 -2.63493 2.79908
LeftUpLeg  -65.506 -2.32208 -14.1939
LeftLeg  117.527 4.73301 -8.84271
LeftFoot  7.69764 0.602689 -3.85767
LeftToes  1.24762e-006 1.46925e-008 1.29056e-009
540
root  -3.53332 40.2174 -35.7855 -9.53145 3.43542 10.4689
RightUpLeg  3.05234 -2.68836 -11.0126
RightLeg  21.6136 -4.36203 -2.12336
RightFoot  -9.5495 -0.0415049 -1.47877
RightToes  -1.46215e-006 3.27826e-006 1.63871e-007
Spine  9.00698 7.42922 9.28637
Spine1  14.3579 13.0749 -14.0763
HEad  -19.5427 49.704 -26.104
LeftShoulder1  2.53077 -4.43721 -25.7265
LeftArm  3.09542 17.6019 -38.2254
LeftForeArm  133.81 -68.2867 -151.077
LeftHand  0.205553 8.70442 8.3666
RightShoulder  3.39427 6.01812 29.7319
RightArm  22.7278 26.1218 55.1276
RightForeArm  128.123 78.5342 121.719
RightHand  -0.0032168 -5.79949 -6.26682
LeftUpLeg  -63.7948 -1.38911 -14.9882
LeftLeg  114.87 3.82189 -8.11083
LeftFoot  9.60353 0.63359 -3.74505
LeftToes  1.24762e-006 1.46925e-008 1.29056e-009
541
root  -3.75852 40.1731 -35.7075 -8.18808 4.71634 11.0707
RightUpLeg  1.58972 -5.44832 -11.8208
RightLeg  22.6747 -3.54927 -1.84942
RightFoot  -9.99996 -0.0461322 -1.84194
RightToes  -1.46215e-006 3.27826e-006 1.63871e-007
Spine  8.30167 5.82199 5.35275
Spine1  12.4377 9.47137 -9.58065
HEad  -22.1559 54.7017 -31.8318
LeftShoulder1  2.11809 -3.63487 -23.409
LeftArm  9.08884 -1.09265 -47.9541
LeftForeArm  155.966 -70.7628 -150.26
LeftHand  0.208488 11.2082 5.17782
RightShoulder  3.70541 6.43227 31.4009
RightArm  12.0624 3.26167 42.4083
RightForeArm  100.968 71.6275 141.404
RightHand  -0.378342 -1.97575 -13.0946
LeftUpLeg  -61.5602 0.0837998 -15.723
LeftLeg  113.135 4.64739 -10.4388
LeftFoot  13.2429 1.56272 -7.55328
LeftToes  1.24762e-006 1.46925e-008 1.29056e-009
542
root  -3.7914 40.1213 -35.7322 -7.43686 5.22325 11.7306
RightUpLeg  0.188198 -9.44321 -13.2747
RightLeg  24.2071 -1.40086 -0.915614
RightFoot  -10.2501 -0.0491685 -2.11473
RightToes  -1.46215e-006 3.27826e-006 1.63871e-007
Spine  9.32237 4.14374 3.48239
Spine1  10.644 6.6624 -6.87616
HEad  -26.6015 57.9463 -38.2167
LeftShoulder1  1.26623 -1.64933 -17.7327
LeftArm  30.3001 -21.7353 -64.4256
LeftForeArm  159.736 -76.0472 -139.467
LeftHand  -0.0775689 10.5203 -0.603266
RightShoulder  3.95168 6.82537 32.3711
RightArm  9.09928 -17.6103 33.1942
RightForeArm  54.9788 70.5244 140.324
RightHand  0.0085083 -5.20153 -12.9952
LeftUpLeg  -60.015 2.24461 -16.2866
LeftLeg  112.385 5.68941 -12.9804
LeftFoot  14.1164 2.23072 -10.2532
LeftToes  1.24762e-006 1.46925e-008 1.29056e-009
543
root  -3.63707 40.1266 -35.853 -6.72064 4.15625 12.9414
RightUpLeg  -2.29256 -12.8002 -15.068
RightLeg  26.4312 0.32602 -0.0576942
RightFoot  -9.72569 -0.0324573 -2.3597
RightToes  -1.46215e-006 3.27826e-006 1.63871e-007
Spine  10.2361 2.04797 2.76199
Spine1  9.94361 3.96715 -5.65219
HEad  -33.6516 59.6905 -45.7147
LeftShoulder1  0.526679 0.567707 -10.4757
LeftArm  47.3225 -32.5122 -77.9754
LeftForeArm  143.064 -79.0728 -123.264
LeftHand  -0.20921 9.36166 -4.37346
RightShoulder  4.01673 7.09805 31.9972
RightArm  14.8752 -29.1307 26.2829
RightForeArm  38.1817 73.8423 129.453
RightHand  0.760247 -9.37013 -22.4358
LeftUpLeg  -59.5749 5.34701 -17.2786
LeftLeg  111.277 5.54416 -13.3148
LeftFoot  14.8937 2.47679 -10.995
LeftToes  1.24762e-006 1.46925e-008 1.29056e-009
